<?xml version="1.0" encoding="UTF-8"?>
<svg xmlns="http://www.w3.org/2000/svg" width="400" height="400" viewBox="0 0 64 64" role="img" aria-label="LoboTracks logo">
  <defs>
    <linearGradient id="g" x1="0" x2="1" y1="0" y2="1">
      <stop offset="0" stop-color="#2563eb"/>
      <stop offset="1" stop-color="#06b6d4"/>
    </linearGradient>
  </defs>
  <rect width="64" height="64" rx="10" fill="url(#g)"/>
  <g transform="translate(8,8)">
    <path fill="#07132a" d="M12 26c0-6 6-10 12-10s12 4 12 10c0 6-12 20-12 20S12 32 12 26z"/>
    <path fill="#fff" d="M18 20c1.5-2 4-3 6-3s4.5 1 6 3c-1.2-1.6-3.2-2.6-5.5-2.6S19.2 18.4 18 20z"/>
    <path fill="#ffdd57" d="M26 14c0 1.7-1.2 3-2.8 3S20.4 15.7 20.4 14 22.2 11 23.2 11s2.8 1.3 2.8 3z"/>
  </g>
</svg>
