<?xml version="1.0" encoding="UTF-8"?>
<svg xmlns="http://www.w3.org/2000/svg" width="200" height="200" viewBox="0 0 64 64" role="img" aria-label="LoboTracks favicon">
  <defs>
    <linearGradient id="g2" x1="0" x2="1">
      <stop offset="0" stop-color="#0ea5a4"/>
      <stop offset="1" stop-color="#2563eb"/>
    </linearGradient>
  </defs>
  <rect width="64" height="64" rx="12" fill="url(#g2)"/>
  <path fill="#fff" d="M32 14c-2.5 0-4.5 2-4.5 4.5S29.5 23 32 23s4.5-2 4.5-4.5S34.5 14 32 14zM20 18c-1.7 0-3 1.3-3 3s1.3 3 3 3 3-1.3 3-3-1.3-3-3-3zM44 18c-1.7 0-3 1.3-3 3s1.3 3 3 3 3-1.3 3-3-1.3-3-3-3zM32 26c-4 0-9 4-9 8.5C23 40 32 50 32 50s9-10 9-15.5C41 30 36 26 32 26z"/>
</svg>
